<svg width="36" height="31" viewBox="0 0 36 31" fill="none" xmlns="http://www.w3.org/2000/svg">
<path fill-rule="evenodd" clip-rule="evenodd" d="M7.95349 15.0812C3.56316 15.0812 0 18.647 0 23.0406C0 27.4343 3.56316 31.0001 7.95349 31.0001C12.3438 31.0001 15.907 27.4343 15.907 23.0406C15.907 18.647 12.3438 15.0812 7.95349 15.0812ZM7.95349 20.5271C9.33991 20.5271 10.4651 21.6532 10.4651 23.0406C10.4651 24.4281 9.33991 25.5541 7.95349 25.5541C6.56707 25.5541 5.44186 24.4281 5.44186 23.0406C5.44186 21.6532 6.56707 20.5271 7.95349 20.5271Z" fill="white"/>
<path fill-rule="evenodd" clip-rule="evenodd" d="M2.02939 15.4465C3.66362 14.1679 5.71981 13.4055 7.95348 13.4055C13.2681 13.4055 17.5814 17.722 17.5814 23.0406C17.5814 23.7343 18.144 24.2974 18.8372 24.2974C19.5304 24.2974 20.093 23.7343 20.093 23.0406C20.093 16.3362 14.6528 10.892 7.95348 10.892C5.13711 10.892 2.54343 11.8538 0.482223 13.4675C-0.0636374 13.8948 -0.160754 14.6857 0.266223 15.232C0.6932 15.7782 1.48353 15.8738 2.02939 15.4465Z" fill="#F26B35"/>
<path fill-rule="evenodd" clip-rule="evenodd" d="M5.86026 12.1486V2.51351H16.3589L21.0456 12.6748C21.3352 13.3049 22.082 13.5797 22.7116 13.2898C23.3412 12.9999 23.6158 12.2525 23.3261 11.6225L18.3029 0.730595C18.0969 0.284865 17.6532 0 17.1626 0H4.60445C3.91124 0 3.34863 0.563027 3.34863 1.25676V12.1486C3.34863 12.8424 3.91124 13.4054 4.60445 13.4054C5.29766 13.4054 5.86026 12.8424 5.86026 12.1486Z" fill="#F26B35"/>
<path fill-rule="evenodd" clip-rule="evenodd" d="M20.5113 0H2.09273C1.39952 0 0.836914 0.563027 0.836914 1.25676C0.836914 1.95049 1.39952 2.51351 2.09273 2.51351H20.5113C21.2045 2.51351 21.7671 1.95049 21.7671 1.25676C21.7671 0.563027 21.2045 0 20.5113 0Z" fill="#F26B35"/>
<path fill-rule="evenodd" clip-rule="evenodd" d="M29.3026 12.9865V8.48061L30.6087 7.17191C31.0993 6.68262 31.0993 5.88499 30.6087 5.3957C30.1198 4.90472 29.3227 4.90472 28.8338 5.3957L27.1594 7.07137C26.9233 7.30597 26.791 7.62602 26.791 7.95948V12.9865C26.791 13.6802 27.3536 14.2433 28.0468 14.2433C28.74 14.2433 29.3026 13.6802 29.3026 12.9865Z" fill="#F26B35"/>
<path d="M29.7205 31.0001C33.1883 31.0001 35.9995 28.1867 35.9995 24.7163C35.9995 21.2458 33.1883 18.4325 29.7205 18.4325C26.2526 18.4325 23.4414 21.2458 23.4414 24.7163C23.4414 28.1867 26.2526 31.0001 29.7205 31.0001Z" fill="#F26B35"/>
<path fill-rule="evenodd" clip-rule="evenodd" d="M21.7771 24.2974C21.9964 20.0981 25.4708 16.7568 29.7205 16.7568C31.0835 16.7568 32.3661 17.1003 33.488 17.7053V15.2437C33.488 13.811 32.4532 12.5878 31.04 12.3515C28.2772 11.8907 22.3916 10.9087 22.3916 10.9087C22.3246 10.897 22.2543 10.892 22.1856 10.892H7.95308C7.25987 10.892 6.69727 11.455 6.69727 12.1487C6.69727 12.8425 7.25987 13.4055 7.95308 13.4055C13.2677 13.4055 17.581 17.722 17.581 23.0406C17.581 23.7343 18.1436 24.2974 18.8368 24.2974H21.7771Z" fill="#F26B35"/>
</svg>
