<svg width="44" height="31" viewBox="0 0 44 31" fill="none" xmlns="http://www.w3.org/2000/svg">
<path d="M41.7762 12.8608H38.4589V5.442L42.8917 3.52683C43.8197 3.12702 44.2494 2.04241 43.8517 1.11415C43.4532 0.179419 42.3732 -0.250022 41.447 0.14901L14.6843 11.7118H23.9465L37.5445 5.83697V12.8607H2.1121C0.946351 12.8607 0 13.8119 0 14.9839C0 16.1557 0.946266 17.1071 2.1121 17.1071H3.07667V18.9683L3.99097 18.8212V17.107H12.3708V18.9682L13.2851 18.8211V17.1069H21.6696V18.9681L22.5839 18.821V17.1068H34.3834V18.6555C34.6532 18.6308 35.027 18.6307 35.2977 18.6555V17.1068H41.7757C42.9369 17.1068 43.8878 16.1556 43.8878 14.9836C43.8882 13.8121 42.9373 12.8608 41.7762 12.8608Z" fill="white"/>
<path d="M34.8403 23.5048C33.8049 23.5048 32.9629 24.3525 32.9629 25.3944C32.9629 26.4353 33.8049 27.2819 34.8403 27.2819C35.8757 27.2819 36.7181 26.4352 36.7181 25.3944C36.7181 24.3525 35.8757 23.5048 34.8403 23.5048Z" fill="#F26B35"/>
<path d="M34.8404 19.7864C31.7682 19.7864 29.2676 22.3048 29.2676 25.3931C29.2676 28.4815 31.7683 30.9952 34.8404 30.9952C37.9125 30.9952 40.4133 28.4814 40.4133 25.3931C40.4133 22.3049 37.9125 19.7864 34.8404 19.7864ZM34.8403 28.2006C33.3009 28.2006 32.0486 26.9415 32.0486 25.3941C32.0486 23.8453 33.3009 22.5853 34.8403 22.5853C36.3797 22.5853 37.6325 23.8454 37.6325 25.3941C37.6325 26.9416 36.3797 28.2006 34.8403 28.2006Z" fill="white"/>
<path d="M10.534 28.5506C10.2551 29.3456 10.6711 30.2188 11.462 30.5037C12.9703 31.0388 14.628 31.2275 16.1206 30.6325C13.8164 29.7685 12.166 28.661 10.9865 27.4982C10.79 27.875 10.6392 28.2381 10.534 28.5506Z" fill="#F26B35"/>
<path d="M1.2348 28.5505C0.960487 29.3455 1.37651 30.2188 2.1674 30.5037C3.68662 31.0427 5.35348 31.2244 6.82594 30.6324C4.51721 29.7684 2.86694 28.6562 1.69191 27.4935C1.49554 27.8704 1.34463 28.238 1.2348 28.5505Z" fill="#F26B35"/>
<path d="M19.827 28.5506C19.5481 29.3456 19.9641 30.2188 20.755 30.5037C22.2741 31.0427 23.9411 31.2245 25.4135 30.6325C23.1048 29.7685 21.4545 28.661 20.2795 27.4982C20.083 27.875 19.9321 28.2381 19.827 28.5506Z" fill="#F26B35"/>
<path d="M16.2349 21.5421C16.4063 20.518 15.5227 19.6266 14.5114 19.7912L10.5752 20.4162C9.76603 20.535 9.15561 21.3307 9.32258 22.1993C9.70664 24.1846 11.2336 27.8106 17.1585 29.7821C17.3819 29.8495 17.5856 29.7566 17.6935 29.5799C17.8031 29.396 17.7712 29.1617 17.6203 29.0145C17.5971 28.9917 15.3799 26.7859 16.2349 21.5421Z" fill="#F26B35"/>
<path d="M6.94025 21.5421C7.11092 20.5219 6.23418 19.6264 5.21212 19.7911L1.28045 20.4162C0.449339 20.5382 -0.136932 21.3424 0.0278117 22.1992C0.411869 24.1846 1.93882 27.8106 7.86374 29.7821C8.09045 29.8505 8.29464 29.7505 8.39862 29.5798C8.50828 29.396 8.47631 29.1616 8.32093 29.0145C8.29807 28.9917 6.08534 26.7858 6.94025 21.5421Z" fill="#F26B35"/>
<path d="M25.5289 21.542C25.684 20.6241 24.9776 19.7727 24.0477 19.7727C23.8066 19.7727 24.0046 19.7673 19.8692 20.4161C19.06 20.5349 18.4496 21.3307 18.6165 22.1992C19.0006 24.1845 20.5275 27.8105 26.4525 29.782C26.6799 29.8506 26.8838 29.7488 26.9873 29.5844C27.0971 29.4005 27.0651 29.1662 26.9142 29.0145C26.8913 28.9917 24.6832 26.7444 25.5289 21.542Z" fill="#F26B35"/>
</svg>
