<svg width="42" height="33" viewBox="0 0 42 33" fill="none" xmlns="http://www.w3.org/2000/svg">
<path d="M32.2498 0C32.6638 0 32.9998 0.336 32.9998 0.75V2.25C32.9998 2.664 32.6638 3 32.2498 3H31.4998C30.6719 3 29.9999 3.672 29.9999 4.5V8.25H27V4.5C27 2.0145 29.0144 0 31.4998 0H32.2498Z" fill="#F26B35"/>
<path d="M16.0503 23.25H15.5988C15.4038 22.293 15.0244 21.405 14.5024 20.619L14.8264 20.295C15.0019 20.1195 15.0019 19.8345 14.8264 19.659L13.3414 18.174C13.1659 17.9985 12.881 17.9985 12.7055 18.174L12.3815 18.498C11.5955 17.976 10.7075 17.595 9.75058 17.4015V16.95C9.75058 16.701 9.54959 16.5 9.3006 16.5H7.20068C6.95169 16.5 6.7507 16.701 6.7507 16.95V17.4015C5.79374 17.5965 4.90578 17.976 4.11981 18.498L3.79582 18.174C3.62033 17.9985 3.33534 17.9985 3.15985 18.174L1.67491 19.659C1.49942 19.8345 1.49942 20.1195 1.67491 20.295L1.9989 20.619C1.47692 21.405 1.09593 22.293 0.90244 23.25H0.450958C0.201968 23.25 0.000976562 23.451 0.000976562 23.7V25.8C0.000976562 26.049 0.201968 26.25 0.450958 26.25H0.90244C1.09743 27.207 1.47692 28.095 1.9989 28.881L1.67491 29.205C1.49942 29.3805 1.49942 29.6655 1.67491 29.841L3.15985 31.326C3.33534 31.5015 3.62033 31.5015 3.79582 31.326L4.11981 31.002C4.90578 31.524 5.79374 31.905 6.7507 32.0985V32.55C6.7507 32.799 6.95169 33 7.20068 33H9.3006C9.54959 33 9.75058 32.799 9.75058 32.55V32.0985C10.7075 31.9035 11.5955 31.524 12.3815 31.002L12.7055 31.326C12.881 31.5015 13.1659 31.5015 13.3414 31.326L14.8264 29.841C15.0019 29.6655 15.0019 29.3805 14.8264 29.205L14.5024 28.881C15.0229 28.0935 15.4038 27.207 15.5988 26.25H16.0503C16.2993 26.25 16.5003 26.049 16.5003 25.8V23.7C16.5003 23.451 16.2993 23.25 16.0503 23.25ZM8.25064 27.75C6.59321 27.75 5.25076 26.4075 5.25076 24.75C5.25076 23.0925 6.59321 21.75 8.25064 21.75C9.90807 21.75 11.2505 23.0925 11.2505 24.75C11.2505 26.4075 9.90807 27.75 8.25064 27.75Z" fill="#F26B35"/>
<path d="M41.5504 24.75H41.039C40.898 24.204 40.682 23.694 40.403 23.22L40.7675 22.8555C40.943 22.68 40.943 22.395 40.7675 22.2195L39.2825 20.7345C39.107 20.559 38.8221 20.559 38.6466 20.7345L38.2821 21.099C37.8081 20.82 37.2981 20.604 36.7521 20.463V19.95C36.7521 19.701 36.5512 19.5 36.3022 19.5H34.2022C33.9533 19.5 33.7523 19.701 33.7523 19.95V20.4615C33.2063 20.6025 32.6963 20.8185 32.2223 21.0975L31.8578 20.733C31.6823 20.5575 31.3974 20.5575 31.2219 20.733L29.7369 22.218C29.5614 22.3935 29.5614 22.6785 29.7369 22.854L30.1014 23.2185C29.8224 23.6925 29.6064 24.2025 29.4654 24.7485H28.951C28.702 24.7485 28.501 24.9495 28.501 25.1985V27.2985C28.501 27.5475 28.702 27.7485 28.951 27.7485H29.4624C29.6034 28.2945 29.8194 28.8045 30.0984 29.2785L29.7339 29.643C29.5584 29.8185 29.5584 30.1035 29.7339 30.279L31.2189 31.764C31.3944 31.9395 31.6793 31.9395 31.8548 31.764L32.2193 31.3995C32.6933 31.6785 33.2033 31.8945 33.7493 32.0355V32.55C33.7493 32.799 33.9503 33 34.1992 33H36.2992C36.5481 33 36.7491 32.799 36.7491 32.55V32.0385C37.2951 31.8975 37.8051 31.6815 38.2791 31.4025L38.6436 31.767C38.8191 31.9425 39.104 31.9425 39.2795 31.767L40.7645 30.282C40.94 30.1065 40.94 29.8215 40.7645 29.646L40.4 29.2815C40.679 28.8075 40.895 28.2975 41.036 27.7515H41.5504C41.7994 27.7515 42.0004 27.5505 42.0004 27.3015V25.2015C42.0004 24.951 41.7994 24.75 41.5504 24.75ZM33.0008 26.25C33.0008 25.008 34.0088 24 35.2507 24C36.4927 24 37.5006 25.008 37.5006 26.25C37.5006 27.492 36.4927 28.5 35.2507 28.5C34.0088 28.5 33.0008 27.492 33.0008 26.25Z" fill="#F26B35"/>
<path d="M35.9936 10.506L19.5933 10.5375L17.0809 3H18.0003C18.8298 3 19.5003 2.3295 19.5003 1.5C19.5003 0.6705 18.8298 0 18.0003 0C17.7514 0 0.779546 0 1.50102 0C0.67155 0 0.00107742 0.6705 0.00107742 1.5C0.00107742 2.3295 0.67155 3 1.50102 3H3.00096V13.1655C1.789 13.716 1.08103 14.1915 0.613053 14.538C-0.945384 15.6975 0.764546 18.18 2.43398 16.932C4.05541 15.72 6.06833 15 8.25074 15C13.6355 15 18.0003 19.365 18.0003 24.75C18.0003 25.0035 17.9808 25.251 17.9628 25.5H27.0375C27.417 21.2955 30.9463 18 35.2496 18C36.6011 18 37.873 18.3315 38.9995 18.9075V13.506C38.9995 11.847 37.6525 10.503 35.9936 10.506ZM14.1575 13.4535C11.6961 12.162 8.90471 11.6955 6.00083 12.2115V3H13.919L16.4749 10.665C16.3519 11.5125 15.317 13.2315 14.1575 13.4535ZM24.7501 17.55C24.7501 17.799 24.5491 18 24.3001 18H22.9501C22.7012 18 22.5002 17.799 22.5002 17.55V13.95C22.5002 13.701 22.7012 13.5 22.9501 13.5H24.3001C24.5491 13.5 24.7501 13.701 24.7501 13.95V17.55ZM29.2499 17.55C29.2499 17.799 29.0489 18 28.7999 18H27.45C27.201 18 27 17.799 27 17.55V13.95C27 13.701 27.201 13.5 27.45 13.5H28.7999C29.0489 13.5 29.2499 13.701 29.2499 13.95V17.55Z" fill="white"/>
</svg>
