<svg width="36" height="33" viewBox="0 0 36 33" fill="none" xmlns="http://www.w3.org/2000/svg">
<path d="M30.0054 6.77102C29.575 6.73131 29.2619 6.34208 29.3011 5.9052L29.5593 2.99793L15.7232 14.0154C15.4023 14.2696 14.9406 14.2298 14.6667 13.928L11.0198 9.98014L1.261 17.7408C1.12013 17.852 0.947964 17.9076 0.783621 17.9076C0.548845 17.9076 0.321895 17.8043 0.165378 17.6058C-0.100701 17.2563 -0.0380943 16.7638 0.298418 16.4937L10.6207 8.28026C10.9338 8.02607 11.3955 8.06579 11.6694 8.35969L15.3162 12.3155L28.4793 1.8382L25.7638 1.58401C25.3334 1.54429 25.0125 1.16301 25.0516 0.726126C25.0907 0.289241 25.4664 -0.036437 25.9046 0.00327978L30.5767 0.440165C30.788 0.456051 30.9914 0.551372 31.1323 0.742012C31.281 0.92471 31.3201 1.14712 31.281 1.36159L30.8584 6.05612C30.8193 6.46123 30.4828 6.77102 30.0758 6.77102H30.0054Z" fill="white"/>
<path d="M26.6083 18.7018V32.2055C26.6083 32.6424 26.2562 32.9999 25.8258 32.9999H21.1302C20.692 32.9999 20.3477 32.6424 20.3477 32.2055V22.6735C20.3477 22.4431 20.4494 22.2128 20.6294 22.0618L25.3249 18.0902C25.5519 17.8995 25.8805 17.8519 26.1544 17.9869C26.4283 18.114 26.6083 18.392 26.6083 18.7018Z" fill="#F26B35"/>
<path d="M17.2177 19.4963V32.2057C17.2177 32.6426 16.8656 33 16.4351 33H11.7396C11.3014 33 10.957 32.6426 10.957 32.2057V22.6736C10.957 22.4115 11.0822 22.1653 11.3014 22.0143L15.9969 18.837C16.2395 18.6781 16.5447 18.6622 16.8029 18.7973C17.0534 18.9403 17.2177 19.2024 17.2177 19.4963Z" fill="#F26B35"/>
<path d="M35.9999 6.78677V32.2055C35.9999 32.6424 35.6478 32.9999 35.2174 32.9999H30.5218C30.0836 32.9999 29.7393 32.6424 29.7393 32.2055V10.7584C29.7393 10.5281 29.841 10.2977 30.021 10.1468L34.7165 6.17513C34.9435 5.98449 35.2721 5.93683 35.546 6.07187C35.82 6.19896 35.9999 6.47698 35.9999 6.78677Z" fill="#F26B35"/>
<path d="M7.8271 26.6455V32.2058C7.8271 32.6427 7.47493 33.0001 7.04451 33.0001H2.34899C1.91074 33.0001 1.56641 32.6427 1.56641 32.2058V29.8228C1.56641 29.5607 1.69162 29.3144 1.91074 29.1635L6.60626 25.9862C6.84886 25.8273 7.15407 25.8114 7.41232 25.9464C7.66275 26.0894 7.8271 26.3516 7.8271 26.6455Z" fill="#F26B35"/>
</svg>
