<svg width="36" height="36" viewBox="0 0 36 36" fill="none" xmlns="http://www.w3.org/2000/svg">
<g clip-path="url(#clip0_328_108938)">
<path d="M18 6.69661C18.5825 6.69661 19.0547 6.22439 19.0547 5.64192V2.15857C19.0547 1.5761 18.5825 1.10388 18 1.10388C17.4175 1.10388 16.9453 1.5761 16.9453 2.15857V5.64192C16.9453 6.22439 17.4175 6.69661 18 6.69661Z" fill="white"/>
<path d="M22.9219 8.48668C23.1918 8.48668 23.4618 8.38367 23.6676 8.17772L26.4801 5.36522C26.892 4.9534 26.892 4.28558 26.4801 3.87368C26.0683 3.46186 25.4005 3.46186 24.9886 3.87368L22.1761 6.68618C21.7642 7.09801 21.7642 7.76583 22.1761 8.17772C22.3821 8.38367 22.652 8.48668 22.9219 8.48668Z" fill="white"/>
<path d="M12.3324 8.17785C12.5384 8.38379 12.8083 8.4868 13.0782 8.4868C13.348 8.4868 13.618 8.38379 13.8239 8.17785C14.2358 7.76603 14.2358 7.0982 13.8239 6.68631L11.0114 3.87381C10.5996 3.46199 9.93175 3.46199 9.51986 3.87381C9.10796 4.28563 9.10796 4.95345 9.51986 5.36535L12.3324 8.17785Z" fill="white"/>
<path d="M27.4732 16.0106L23.379 11.9163C22.5878 11.1251 21.5148 10.6807 20.3958 10.6807H13.9918C12.3954 10.6807 10.8946 11.3024 9.76577 12.4312L9.4287 12.7682L9.4069 12.79H1.05469C0.472219 12.79 0 13.2622 0 13.8447V25.0947C0 25.6771 0.472219 26.1493 1.05469 26.1493H6.31315L8.81677 28.6529C9.01455 28.8507 9.2828 28.9618 9.5625 28.9618H10.5175C10.164 28.4147 9.93649 27.8036 9.84741 27.1638C9.05892 26.9073 8.3494 26.4338 7.80293 25.7825C6.21429 23.889 6.46214 21.0562 8.35544 19.4675L12.3641 16.1039H20.3681C20.6478 16.1039 20.9161 16.215 21.1139 16.4128L24.0586 19.3576C25.0045 20.3034 26.5726 20.3236 27.5022 19.3618C28.4052 18.4276 28.3955 16.9329 27.4732 16.0106Z" fill="#F26B35"/>
<path d="M35.9995 16.0244C35.9995 15.4418 35.5273 14.9697 34.9448 14.9697H29.3574C30.7059 16.7325 30.5757 19.2714 28.9643 20.8829C28.115 21.7322 26.985 22.1998 25.7823 22.1998C24.5796 22.1998 23.4496 21.7322 22.6004 20.8829L19.9309 18.2133H12.934L12.1055 18.9085L9.42977 21.1537C8.42578 21.9961 8.29485 23.4929 9.13727 24.4969C9.97968 25.5009 11.4765 25.6318 12.4805 24.7894C11.4765 25.6318 11.3456 27.1287 12.188 28.1326C13.0304 29.1366 14.5272 29.2676 15.5312 28.4251C14.5272 29.2676 14.3963 30.7644 15.2387 31.7684C16.0811 32.7724 17.5779 32.9033 18.5819 32.0609L20.4498 30.4935L20.1978 30.705C19.1939 31.5474 19.0629 33.0442 19.9053 34.0482C20.7478 35.0522 22.2446 35.1831 23.2486 34.3407L30.413 28.329H34.945C35.5274 28.329 35.9997 27.8567 35.9996 27.2743L35.9995 16.0244Z" fill="#F26B35"/>
</g>
<defs>
<clipPath id="clip0_328_108938">
<rect width="36" height="36" fill="white"/>
</clipPath>
</defs>
</svg>
