<svg width="36" height="36" viewBox="0 0 36 36" fill="none" xmlns="http://www.w3.org/2000/svg">
<g clip-path="url(#clip0_328_108902)">
<path d="M35.2621 0.00448474C28.2346 -0.121515 20.2201 3.55198 15.1471 9.25049C10.2991 9.34198 5.57864 11.3295 2.10314 14.805C1.90064 15.0045 1.82864 15.303 1.91714 15.573C2.00714 15.8445 2.24114 16.041 2.52314 16.0815L8.30414 16.9095L7.59014 17.709C7.32464 18.006 7.33814 18.4575 7.62014 18.7395L17.2606 28.38C17.4061 28.5255 17.5981 28.599 17.7916 28.599C17.9701 28.599 18.1486 28.536 18.2911 28.4085L19.0906 27.6945L19.9186 33.4755C19.9591 33.7575 20.1811 33.9645 20.4496 34.0545C20.5186 34.077 20.5906 34.0875 20.6641 34.0875C20.8771 34.0875 21.0946 33.9945 21.2446 33.846C24.6721 30.4185 26.6596 25.698 26.7511 20.85C32.4556 15.7665 36.1591 7.75499 35.9956 0.736485C35.9851 0.337485 35.6626 0.0149847 35.2621 0.00448474ZM28.3501 12.9525C27.6196 13.683 26.6596 14.049 25.6981 14.049C24.7366 14.049 23.7766 13.683 23.0461 12.9525C21.5851 11.49 21.5851 9.11098 23.0461 7.64849C24.5086 6.18599 26.8876 6.18599 28.3501 7.64849C29.8126 9.11098 29.8126 11.4915 28.3501 12.9525Z" fill="#F26B35"/>
<path d="M4.08609 25.3575C2.48109 26.9625 0.277586 34.2135 0.0315861 35.034C-0.0479139 35.298 0.0255861 35.5845 0.219086 35.7795C0.363086 35.9235 0.553586 36 0.750086 36C0.822086 36 0.894086 35.9895 0.966086 35.9685C1.78659 35.7225 9.03759 33.519 10.6426 31.914C12.4501 30.1065 12.4501 27.165 10.6426 25.3575C8.83359 23.55 5.89359 23.5515 4.08609 25.3575Z" fill="white"/>
</g>
<defs>
<clipPath id="clip0_328_108902">
<rect width="36" height="36" fill="white"/>
</clipPath>
</defs>
</svg>
