<svg width="36" height="33" viewBox="0 0 36 33" fill="none" xmlns="http://www.w3.org/2000/svg">
<path d="M29.3428 0C25.8449 0 22.9687 2.7164 22.7046 6.15358C22.6922 6.32362 22.6855 6.49614 22.6855 6.66949C22.6855 11.7481 28.5256 17.6156 28.5844 17.6744C28.7806 17.8694 29.0431 17.9788 29.3237 17.983C29.3304 17.9838 29.3361 17.9838 29.3428 17.9838C29.6309 17.9838 29.9 17.8735 30.1011 17.6736C30.1599 17.6156 36 11.7473 36 6.66949C36 2.99177 33.0137 0 29.3428 0ZM29.3428 9.61233C27.7226 9.61233 26.4045 8.29187 26.4045 6.66949C26.4045 5.04629 27.7226 3.72582 29.3428 3.72582C30.963 3.72582 32.281 5.04629 32.281 6.66949C32.281 8.29187 30.963 9.61233 29.3428 9.61233Z" fill="white"/>
<path d="M8.23932 7.69813C8.86025 6.51453 9.56729 5.53745 10.3372 4.78516C6.82194 5.812 3.86051 8.15018 2.01758 11.2348H6.84843C7.21602 9.95337 7.68214 8.7623 8.23932 7.69813Z" fill="#F26B35"/>
<path d="M21.4436 6.66924C21.4436 6.25369 21.4758 5.84561 21.5379 5.44665C21.3939 5.36786 21.2482 5.29155 21.1 5.21773C20.9493 5.50803 20.5949 5.63162 20.2936 5.49476C19.6652 5.2086 19.0219 4.97056 18.3662 4.77979C19.1378 5.53374 19.8465 6.51165 20.4683 7.69774C21.0296 8.7702 21.499 9.97122 21.8683 11.2643C22.1183 11.3439 22.2996 11.5787 22.2996 11.8565C22.2996 12.0199 22.2359 12.1684 22.1324 12.2795C22.5546 14.0603 22.7955 15.9896 22.8369 17.9836H26.291C26.6337 17.9836 26.9119 18.2623 26.9119 18.6056C26.9119 18.949 26.6337 19.2277 26.291 19.2277H22.8369C22.7972 21.1479 22.572 23.0075 22.1787 24.7327H27.3656C28.0163 23.3426 28.4535 21.8255 28.6323 20.2214C28.6695 19.888 28.9643 19.6449 29.2954 19.6698C29.3062 19.523 29.3145 19.3754 29.3211 19.2269C28.7109 19.2219 28.1397 18.9847 27.7092 18.5575C27.4533 18.3029 21.4436 12.2679 21.4436 6.66924Z" fill="#F26B35"/>
<path d="M20.469 29.5131C19.8464 30.7008 19.1377 31.6787 18.3652 32.4327C21.8822 31.4141 24.8585 29.0859 26.7064 25.9772H21.8598C21.4922 27.2587 21.0261 28.4489 20.469 29.5131Z" fill="#F26B35"/>
<path d="M20.5654 25.9772H8.14258C8.4696 27.0455 8.87031 28.0391 9.33974 28.9349C10.7132 31.5568 12.4941 33 14.3536 33C16.2139 33 17.9947 31.5568 19.369 28.9349C19.8385 28.0391 20.2383 27.0455 20.5654 25.9772Z" fill="#F26B35"/>
<path d="M8.23932 29.5131C7.68214 28.4489 7.21602 27.2587 6.84843 25.9772H2.01758C3.86051 29.061 6.82194 31.4 10.3372 32.4269C9.56729 31.6737 8.86025 30.6975 8.23932 29.5131Z" fill="#F26B35"/>
<path d="M5.87071 19.228H0C0.0836189 21.1896 0.561323 23.0501 1.35446 24.733H6.5289C6.13564 23.0078 5.91045 21.1482 5.87071 19.228Z" fill="#F26B35"/>
<path d="M7.80376 24.733H20.9054C21.3177 23.0227 21.5537 21.1598 21.5959 19.228H7.11328C7.1555 21.1598 7.39146 23.0227 7.80376 24.733Z" fill="#F26B35"/>
<path d="M20.9054 12.479H7.80376C7.39146 14.1893 7.1555 16.0514 7.11328 17.984H21.5959C21.5537 16.0514 21.3177 14.1893 20.9054 12.479Z" fill="#F26B35"/>
<path d="M6.5289 12.479H1.35446C0.561323 14.1619 0.0836189 16.0224 0 17.984H5.87071C5.91045 16.0638 6.13564 14.2042 6.5289 12.479Z" fill="#F26B35"/>
<path d="M8.14258 11.2347H20.5654C20.2383 10.1664 19.8385 9.17274 19.369 8.27695C17.9947 5.65511 16.2139 4.21106 14.3536 4.21106C12.4941 4.21106 10.7132 5.65511 9.33974 8.27695C8.87031 9.17274 8.4696 10.1664 8.14258 11.2347Z" fill="#F26B35"/>
</svg>
