<svg width="36" height="36" viewBox="0 0 36 36" fill="none" xmlns="http://www.w3.org/2000/svg">
<g clip-path="url(#clip0_328_108979)">
<path d="M2.10938 18C2.10938 9.23787 9.23787 2.10938 18 2.10938C20.9584 2.10938 23.7302 2.92275 26.1046 4.33652C26.3099 3.86142 26.6052 3.4162 26.9928 3.0285C27.1278 2.8935 27.2708 2.76975 27.4199 2.65563C24.6145 0.925875 21.3787 0 18 0C13.192 0 8.67185 1.87235 5.27203 5.27203C1.87235 8.67185 0 13.192 0 18C0 21.3789 0.926015 24.615 2.65591 27.4205C2.76933 27.2719 2.8928 27.1285 3.0285 26.9928C3.41086 26.6105 3.85397 26.3114 4.33554 26.1025C2.92233 23.7286 2.10938 20.9576 2.10938 18Z" fill="white"/>
<path d="M29.9824 8.13604C30.5245 8.13604 31.0666 7.92925 31.4802 7.51567C32.3074 6.68844 32.3074 5.3473 31.4802 4.52015C31.0666 4.10657 30.5245 3.89978 29.9824 3.89978C29.4403 3.89978 28.8983 4.10657 28.4846 4.52015C27.6575 5.3473 27.6575 6.68851 28.4846 7.51567C28.8982 7.92925 29.4403 8.13604 29.9824 8.13604Z" fill="#F26B35"/>
<path d="M33.3441 8.57959C33.2308 8.72816 33.1073 8.87153 32.9716 9.00723C32.5893 9.38952 32.1462 9.68856 31.6648 9.89746C33.0779 12.2715 33.8908 15.0424 33.8908 18.0001C33.8908 26.7622 26.7623 33.8907 18.0001 33.8907C15.0417 33.8907 12.27 33.0773 9.8957 31.6633C9.69038 32.1385 9.39507 32.5839 9.0073 32.9716C8.8723 33.1066 8.72921 33.2304 8.58008 33.3445C11.3855 35.0742 14.6214 36.0001 18.0001 36.0001C22.8081 36.0001 27.3283 34.1277 30.7281 30.728C34.1278 27.3282 36.0001 22.808 36.0001 18.0001C36.0001 14.6211 35.0741 11.3851 33.3441 8.57959Z" fill="white"/>
<path d="M6.01763 27.864C5.47552 27.864 4.93348 28.0708 4.51983 28.4844C3.69261 29.3116 3.69261 30.6527 4.51983 31.4799C4.93341 31.8935 5.47552 32.1003 6.01763 32.1003C6.55974 32.1003 7.10178 31.8935 7.51543 31.4799C8.34265 30.6527 8.34265 29.3115 7.51543 28.4844C7.10185 28.0708 6.55974 27.864 6.01763 27.864Z" fill="#F26B35"/>
<path d="M18.8789 28.5882L25.2681 17.2731L24.7845 16.1163L19.0549 14.56V7.41187H17.1215L10.7324 18.7268L11.2158 19.8836L16.9455 21.44V28.5882H18.8789Z" fill="#F26B35"/>
</g>
<defs>
<clipPath id="clip0_328_108979">
<rect width="36" height="36" fill="white"/>
</clipPath>
</defs>
</svg>
